<svg width="24" height="24" viewBox="0 0 24 24" fill="none" xmlns="http://www.w3.org/2000/svg">
<path d="M6 19H9.35V13.95C9.35 13.7 9.43333 13.4917 9.6 13.325C9.78333 13.1417 10 13.05 10.25 13.05H13.75C14 13.05 14.2083 13.1417 14.375 13.325C14.5583 13.4917 14.65 13.7 14.65 13.95V19H18V10.15C18 10.1 17.9833 10.0583 17.95 10.025C17.9333 9.975 17.9083 9.93333 17.875 9.9L12.175 5.625C12.125 5.575 12.0667 5.55 12 5.55C11.9333 5.55 11.875 5.575 11.825 5.625L6.125 9.9C6.09167 9.93333 6.05833 9.975 6.025 10.025C6.00833 10.0583 6 10.1 6 10.15V19ZM4.5 19V10.15C4.5 9.86667 4.55833 9.6 4.675 9.35C4.80833 9.08333 4.99167 8.86667 5.225 8.7L10.925 4.425C11.2417 4.175 11.6 4.05 12 4.05C12.4 4.05 12.7583 4.175 13.075 4.425L18.775 8.7C19.0083 8.86667 19.1833 9.08333 19.3 9.35C19.4333 9.6 19.5 9.86667 19.5 10.15V19C19.5 19.4167 19.35 19.775 19.05 20.075C18.7667 20.3583 18.4167 20.5 18 20.5H14.05C13.8 20.5 13.5833 20.4167 13.4 20.25C13.2333 20.0667 13.15 19.85 13.15 19.6V14.55H10.85V19.6C10.85 19.85 10.7583 20.0667 10.575 20.25C10.4083 20.4167 10.2 20.5 9.95 20.5H6C5.58333 20.5 5.225 20.3583 4.925 20.075C4.64167 19.775 4.5 19.4167 4.5 19Z" fill="black" fill-opacity="0.48"/>
</svg>
