<svg width="20" height="20" viewBox="0 0 20 20" fill="none" xmlns="http://www.w3.org/2000/svg">
<path d="M16.4287 4.22729C16.4287 3.49229 16.2792 3.14017 16.0977 2.95679C15.9175 2.77493 15.5726 2.62478 14.8477 2.62476H12.9561C12.2312 2.62479 11.8862 2.77493 11.7061 2.95679C11.5245 3.14018 11.375 3.49233 11.375 4.22729V6.84351C11.375 7.57869 11.5244 7.93163 11.7061 8.11499C11.8862 8.29678 12.2314 8.44601 12.9561 8.44604H14.8477C15.5723 8.44602 15.9175 8.29677 16.0977 8.11499C16.2793 7.93163 16.4287 7.57869 16.4287 6.84351V4.22729ZM17.6787 6.84351C17.6787 7.69946 17.5129 8.46125 16.9854 8.9939C16.4564 9.52797 15.6985 9.69602 14.8477 9.69604H12.9561C12.1053 9.69601 11.3473 9.52797 10.8184 8.9939C10.2908 8.46125 10.125 7.69945 10.125 6.84351V4.22729C10.125 3.37136 10.2908 2.60955 10.8184 2.0769C11.3473 1.54298 12.1054 1.37479 12.9561 1.37476H14.8477C15.6984 1.37478 16.4564 1.54299 16.9854 2.0769C17.5129 2.60955 17.6787 3.37136 17.6787 4.22729V6.84351Z" fill="#323232"/>
<path d="M8.0957 13.1466C8.0957 12.4116 7.9462 12.0594 7.76465 11.8761C7.58452 11.6942 7.23956 11.544 6.51465 11.544H4.62305C3.89818 11.5441 3.55317 11.6942 3.37305 11.8761C3.1915 12.0594 3.042 12.4116 3.04199 13.1466V15.7628C3.04199 16.498 3.19144 16.8509 3.37305 17.0343C3.55321 17.216 3.89837 17.3653 4.62305 17.3653H6.51465C7.23932 17.3653 7.58448 17.216 7.76465 17.0343C7.94626 16.8509 8.0957 16.498 8.0957 15.7628V13.1466ZM9.3457 15.7628C9.3457 16.6187 9.17991 17.3805 8.65234 17.9132C8.12335 18.4472 7.36545 18.6153 6.51465 18.6153H4.62305C3.77226 18.6153 3.01433 18.4472 2.48535 17.9132C1.9578 17.3805 1.79199 16.6187 1.79199 15.7628V13.1466C1.792 12.2906 1.95779 11.5288 2.48535 10.9962C3.01432 10.4622 3.77236 10.2941 4.62305 10.294H6.51465C7.36534 10.294 8.12336 10.4623 8.65234 10.9962C9.1799 11.5288 9.3457 12.2906 9.3457 13.1466V15.7628Z" fill="#323232"/>
<path d="M2.56278 8H2.55841C2.24867 8 2 7.74863 2 7.44615C2 7.33964 2.04363 4.82599 3.74504 3.24112C4.68737 2.36347 5.93944 1.94595 7.45763 2.0056C7.65831 2.01412 7.83717 2.12489 7.93315 2.2953C8.02913 2.46572 8.0204 2.67448 7.9157 2.84064C7.5536 3.41579 7.23077 3.95687 7.22641 3.96539C7.06935 4.22953 6.72471 4.31474 6.45859 4.16137C6.18811 4.00799 6.10085 3.67142 6.25791 3.41153C6.25791 3.41153 6.31898 3.31354 6.4106 3.15591C5.66023 3.27094 5.03201 3.56491 4.53031 4.02929C3.16918 5.29038 3.12555 7.43336 3.12555 7.45467C3.12555 7.75716 2.86816 7.99574 2.56278 7.99574V8Z" fill="#323232"/>
<path d="M12.8172 17.9915C12.7256 17.9915 12.6384 17.9915 12.5424 17.9872C12.3417 17.9787 12.1628 17.868 12.0668 17.6977C11.9709 17.5273 11.9796 17.3187 12.0843 17.1526C12.4464 16.5777 12.7692 16.0369 12.7736 16.0326C12.9306 15.7686 13.2753 15.6835 13.5414 15.8368C13.8119 15.9901 13.8991 16.3265 13.7421 16.5862C13.7421 16.5862 13.681 16.6842 13.5894 16.8375C14.3398 16.7225 14.968 16.4287 15.4697 15.9645C16.8308 14.704 16.8744 12.5621 16.8744 12.5408C16.8744 12.2385 17.1318 12 17.4372 12H17.4416C17.7513 12 18 12.2512 18 12.5536C18 12.66 17.9564 15.1725 16.255 16.7566C15.3693 17.5827 14.2133 18 12.8129 18L12.8172 17.9915Z" fill="#323232"/>
</svg>
