<svg width="190" height="63" viewBox="0 0 190 63" fill="none" xmlns="http://www.w3.org/2000/svg">
<path d="M149.729 22.2829C150.187 22.5517 150.733 22.6269 151.247 22.4914C151.76 22.356 152.2 22.0209 152.468 21.5606C152.736 21.1003 152.811 20.5528 152.676 20.0391C152.54 19.5255 152.205 19.0878 151.746 18.8216C151.746 18.8216 151.746 18.8216 151.746 18.8216C143.992 15.4301 136.767 14.1429 129.211 12.4857C118.391 10.281 107.611 8.62443 96.699 7.17103C76.8083 4.68657 56.6614 3.52319 36.5503 7.31656C25.3385 9.83698 14.9797 16.5862 7.4417 24.8394C2.40105 29.6976 -0.106929 36.7541 0.00327622 43.5912C0.137053 45.8208 1.50593 46.8954 2.44984 47.8161C3.46598 48.7251 4.48369 49.4663 5.34676 50.2334C21.3642 56.5544 36.4576 57.3299 52.1144 59.9745C78.5998 63.3975 105.199 62.8298 131.654 63.0001C145.438 62.8428 159.192 63.4273 173.039 60.069C179.533 57.8197 184.087 52.3814 187.608 47.072C189.146 44.8388 189.68 42.1329 189.801 39.6344C187.771 30.5549 180.18 26.6262 174.27 21.5753L174.203 21.5291C167.708 17.3522 160.489 14.4728 153.287 11.9456L153.27 11.9396C147.837 10.1717 142.385 8.47519 136.928 6.77753C129.663 4.5209 122.387 2.2807 115.115 0.0333541C114.925 -0.0252879 114.72 -0.00602791 114.544 0.0865936C114.368 0.179233 114.236 0.337645 114.177 0.527286C114.117 0.716927 114.136 0.92235 114.228 1.09867C114.32 1.27497 114.478 1.40772 114.668 1.46741C114.668 1.46741 114.668 1.46741 114.668 1.46741C121.928 3.75479 129.191 6.03484 136.441 8.33034C141.885 10.0569 147.327 11.7831 152.731 13.5745L152.714 13.5685C159.867 16.124 166.893 18.9748 173.218 23.091L173.151 23.0448C178.93 27.7627 186.502 32.9787 187.829 39.5212C187.702 41.8641 187.204 44.1263 185.945 45.9332C182.434 51.1715 178.161 56.0907 172.338 58.0672C159.432 61.1266 145.298 60.6019 131.67 60.6531C105.222 60.3429 78.5854 60.7412 52.5191 57.2213C37.3083 54.7183 20.5599 52.9057 7.3722 47.9652C5.44863 46.3011 2.99185 44.5044 3.08519 43.553C3.02595 37.4529 5.28115 31.2995 9.66579 27.1247C17.319 18.9223 26.5885 13.0245 37.3598 10.5913C56.4385 7.09473 76.6829 8.25977 96.2027 10.8385C107.047 12.3429 117.751 14.0499 128.422 16.2854C135.686 17.8697 143.573 19.5739 149.729 22.2829Z" fill="#EF8F50"/>
</svg>
